<svg width="24" height="24" viewBox="0 0 24 24" fill="none" xmlns="http://www.w3.org/2000/svg">
<g clip-path="url(#clip0_472_2287)">
<path d="M21.3333 0H2.66667C1.2 0 0 1.2 0 2.66667V21.3333C0 22.8 1.2 24 2.66667 24H21.3333C22.8 24 24 22.8 24 21.3333V2.66667C24 1.2 22.8 0 21.3333 0ZM21.3333 21.3333H2.66667V2.66667H21.3333V21.3333Z" fill="white"/>
<path d="M11 6.29333H4.33333V8.29333H11V6.29333Z" fill="white"/>
<path d="M20 17H13.3333V19H20V17Z" fill="white"/>
<path d="M20 13.6667H13.3333V15.6667H20V13.6667Z" fill="white"/>
<path d="M6.66667 20H8.66667V17.3333H11.3333V15.3333H8.66667V12.6667H6.66667V15.3333H4V17.3333H6.66667V20Z" fill="white"/>
<path d="M14.7867 10.6L16.6667 8.72L18.5467 10.6L19.96 9.18667L18.08 7.29333L19.96 5.41333L18.5467 4L16.6667 5.88L14.7867 4L13.3733 5.41333L15.2533 7.29333L13.3733 9.18667L14.7867 10.6Z" fill="white"/>
</g>
<defs>
<clipPath id="clip0_472_2287">
<rect width="24" height="24" fill="white"/>
</clipPath>
</defs>
</svg>
