<svg width="60" height="60" viewBox="0 0 60 60" fill="none" xmlns="http://www.w3.org/2000/svg">
<rect width="60" height="60" rx="30" fill="#1877F2"/>
<path d="M41.6777 38.6719L43.0078 30H34.6875V24.375C34.6875 22.002 35.8477 19.6875 39.5742 19.6875H43.3594V12.3047C43.3594 12.3047 39.9258 11.7188 36.6445 11.7188C29.7891 11.7188 25.3125 15.873 25.3125 23.3906V30H17.6953V38.6719H25.3125V59.6367C26.8418 59.877 28.4062 60 30 60C31.5938 60 33.1582 59.877 34.6875 59.6367V38.6719H41.6777Z" fill="white"/>
<rect width="60" height="60" rx="30" fill="white"/>
<path d="M41.6777 38.6719L43.0078 30H34.6875V24.375C34.6875 22.002 35.8477 19.6875 39.5742 19.6875H43.3594V12.3047C43.3594 12.3047 39.9258 11.7188 36.6445 11.7188C29.7891 11.7188 25.3125 15.873 25.3125 23.3906V30H17.6953V38.6719H25.3125V59.6367C26.8418 59.877 28.4062 60 30 60C31.5938 60 33.1582 59.877 34.6875 59.6367V38.6719H41.6777Z" fill="black"/>
</svg>
