<svg width="60" height="60" viewBox="0 0 60 60" fill="none" xmlns="http://www.w3.org/2000/svg">
<path d="M15.2144 59.7878C11.6462 59.6255 9.70785 59.0317 8.41858 58.5288C6.71026 57.8637 5.49232 57.072 4.21018 55.7916C2.92805 54.5112 2.13451 53.2933 1.47294 51.585C0.970072 50.2957 0.376259 48.3574 0.213986 44.7891C0.0356644 40.932 0 39.7747 0 30.0027C0 20.2306 0.0392308 19.0751 0.212203 15.2144C0.374476 11.6462 0.971855 9.71142 1.47116 8.41858C2.1363 6.71026 2.92983 5.49232 4.2084 4.2084C5.48875 2.92805 6.70669 2.13273 8.4168 1.47116C9.70607 0.968288 11.6444 0.374476 15.2126 0.212203C19.0715 0.0356644 20.2306 0 29.9991 0C39.7712 0 40.9267 0.0392308 44.7874 0.212203C48.3556 0.374476 50.2904 0.971855 51.5832 1.47116C53.2915 2.13273 54.5095 2.92805 55.7916 4.2084C57.0737 5.48875 57.8637 6.70847 58.5288 8.4168C59.0317 9.70607 59.6255 11.6444 59.7878 15.2126C59.9643 19.0733 60 20.2288 60 30.0009C60 39.7694 59.9643 40.9285 59.7878 44.7891C59.6255 48.3574 59.0281 50.2957 58.5288 51.585C57.8637 53.2933 57.072 54.5112 55.7916 55.7916C54.5112 57.072 53.2915 57.8637 51.5832 58.5288C50.2939 59.0317 48.3556 59.6255 44.7874 59.7878C40.9302 59.9643 39.7712 60 29.9991 60C20.2306 60 19.0715 59.9661 15.2144 59.7878Z" fill="url(#paint0_radial_65_1578)"/>
<path d="M23.1927 29.7875C23.1927 26.1449 26.1449 23.1911 29.7875 23.1911C33.4301 23.1911 36.3839 26.1449 36.3839 29.7875C36.3839 33.4301 33.4301 36.3839 29.7875 36.3839C26.1449 36.3839 23.1927 33.4301 23.1927 29.7875ZM19.6269 29.7875C19.6269 35.3992 24.1758 39.9481 29.7875 39.9481C35.3992 39.9481 39.9481 35.3992 39.9481 29.7875C39.9481 24.1758 35.3992 19.6269 29.7875 19.6269C24.1758 19.6269 19.627 24.1754 19.627 29.7875M37.976 19.224C37.9759 19.6936 38.1149 20.1528 38.3757 20.5433C38.6364 20.9339 39.0072 21.2384 39.441 21.4183C39.8748 21.5982 40.3522 21.6454 40.8129 21.554C41.2735 21.4626 41.6967 21.2366 42.0289 20.9046C42.3611 20.5727 42.5874 20.1497 42.6792 19.6891C42.771 19.2285 42.7242 18.7511 42.5447 18.3171C42.3651 17.8832 42.0609 17.5122 41.6705 17.2511C41.2802 16.9901 40.8211 16.8506 40.3515 16.8504H40.3505C39.721 16.8507 39.1174 17.1009 38.6722 17.5459C38.227 17.9909 37.9766 18.5945 37.976 19.224ZM21.7934 45.8942C19.8641 45.8064 18.8156 45.485 18.1187 45.2135C17.1949 44.8539 16.5357 44.4255 15.8427 43.7334C15.1497 43.0413 14.7207 42.3828 14.3626 41.459C14.0909 40.7624 13.7696 39.7135 13.6819 37.7843C13.586 35.6986 13.5668 35.072 13.5668 29.7878C13.5668 24.5036 13.5876 23.8788 13.6819 21.7913C13.7698 19.8621 14.0935 18.8153 14.3626 18.1167C14.7222 17.1928 15.1506 16.5337 15.8427 15.8406C16.5348 15.1476 17.1933 14.7186 18.1187 14.3605C18.8153 14.0889 19.8641 13.7675 21.7934 13.6798C23.8791 13.5839 24.5057 13.5648 29.7875 13.5648C35.0693 13.5648 35.6965 13.5852 37.784 13.6802C39.7132 13.768 40.7601 14.0917 41.4586 14.3608C42.3825 14.7189 43.0416 15.1489 43.7347 15.841C44.4277 16.533 44.8551 17.1932 45.2148 18.117C45.4864 18.8135 45.8078 19.8624 45.8955 21.7916C45.9914 23.8791 46.0106 24.5039 46.0106 29.7881C46.0106 35.0723 45.9914 35.6972 45.8955 37.7847C45.8076 39.7139 45.4847 40.7624 45.2148 41.4593C44.8551 42.3831 44.4268 43.0423 43.7347 43.7337C43.0426 44.4252 42.3825 44.8542 41.4586 45.2138C40.7621 45.4855 39.7132 45.8068 37.784 45.8945C35.6983 45.9905 35.0717 46.0096 29.7875 46.0096C24.5033 46.0096 23.8785 45.9905 21.7934 45.8945M21.6295 10.1198C19.523 10.2158 18.0836 10.5498 16.8265 11.0389C15.5255 11.5441 14.4226 12.2217 13.3213 13.3213C12.22 14.4208 11.5441 15.5239 11.0389 16.8265C10.5498 18.0844 10.2158 19.523 10.1198 21.6295C10.0223 23.7393 10 24.4138 10 29.7875C10 35.1612 10.0223 35.8357 10.1198 37.9455C10.2158 40.0522 10.5498 41.4906 11.0389 42.7485C11.5441 44.0495 12.2202 45.1546 13.3213 46.2537C14.4224 47.3528 15.5239 48.0295 16.8265 48.5361C18.086 49.0252 19.523 49.3592 21.6295 49.4552C23.7404 49.5511 24.4138 49.575 29.7875 49.575C35.1612 49.575 35.8357 49.5527 37.9455 49.4552C40.0521 49.3592 41.4906 49.0252 42.7485 48.5361C44.0495 48.0295 45.1524 47.3533 46.2537 46.2537C47.355 45.1542 48.0295 44.0495 48.5361 42.7485C49.0252 41.4906 49.3608 40.052 49.4552 37.9455C49.5511 35.8341 49.5734 35.1612 49.5734 29.7875C49.5734 24.4138 49.5511 23.7393 49.4552 21.6295C49.3592 19.5229 49.0252 18.0836 48.5361 16.8265C48.0295 15.5255 47.3533 14.4226 46.2537 13.3213C45.1542 12.22 44.0495 11.5441 42.7501 11.0389C41.4906 10.5498 40.052 10.2142 37.9471 10.1198C35.8369 10.0234 35.1627 10 29.7899 10C24.417 10 23.7412 10.0223 21.6303 10.1198" fill="white"/>
<defs>
<radialGradient id="paint0_radial_65_1578" cx="0" cy="0" r="1" gradientUnits="userSpaceOnUse" gradientTransform="translate(3.88314 58.6856) scale(76.1777)">
<stop offset="0.09" stop-color="#FA8F21"/>
<stop offset="0.78" stop-color="#D82D7E"/>
</radialGradient>
</defs>
</svg>
