<svg width="24" height="24" viewBox="0 0 24 24" fill="none" xmlns="http://www.w3.org/2000/svg">
<g clip-path="url(#clip0_608_2383)">
<path fill-rule="evenodd" clip-rule="evenodd" d="M8 2C8.51283 2 8.93551 2.38604 8.99327 2.88338L9 3V5C10.5977 5 11.9037 6.24892 11.9949 7.82373L12 8V14C12 15.5977 10.7511 16.9037 9.17628 16.9949L9 17V21C9 21.5523 8.55228 22 8 22C7.48717 22 7.06449 21.614 7.00673 21.1166L7 21V17C5.40232 17 4.09634 15.7511 4.00509 14.1763L4 14V8C4 6.40232 5.24892 5.09634 6.82373 5.00509L7 5V3C7 2.44772 7.44772 2 8 2ZM17 2C17.5128 2 17.9355 2.38604 17.9933 2.88338L18 3V7C19.5977 7 20.9037 8.24892 20.9949 9.82373L21 10V16C21 17.5977 19.7511 18.9037 18.1763 18.9949L18 19V21C18 21.5523 17.5523 22 17 22C16.4871 22 16.0645 21.614 16.0067 21.1166L16 21V19C14.4023 19 13.0963 17.7511 13.0051 16.1763L13 16V10C13 8.40232 14.2489 7.09634 15.8237 7.00509L16 7V3C16 2.44772 16.4477 2 17 2ZM18 9H16C15.4871 9 15.0645 9.38604 15.0067 9.88338L15 10V16C15 16.5128 15.386 16.9355 15.8834 16.9933L16 17H18C18.5128 17 18.9355 16.614 18.9933 16.1166L19 16V10C19 9.48717 18.614 9.06449 18.1166 9.00673L18 9ZM9 7H7C6.48717 7 6.06449 7.38604 6.00673 7.88338L6 8V14C6 14.5128 6.38604 14.9355 6.88338 14.9933L7 15H9C9.51283 15 9.93551 14.614 9.99327 14.1166L10 14V8C10 7.48717 9.61396 7.06449 9.11662 7.00673L9 7Z" fill="white"/>
</g>
<defs>
<clipPath id="clip0_608_2383">
<rect width="24" height="24" fill="white"/>
</clipPath>
</defs>
</svg>
