<svg width="60" height="60" viewBox="0 0 60 60" fill="none" xmlns="http://www.w3.org/2000/svg">
<rect width="60" height="60" rx="30" fill="#0A66C2"/>
<g clip-path="url(#clip0_65_1596)">
<path d="M12.5 17.1691C12.5 16.0429 12.8942 15.1139 13.6824 14.3819C14.4707 13.6499 15.4955 13.2839 16.7568 13.2839C17.9955 13.2839 18.9977 13.6443 19.7635 14.365C20.5518 15.1083 20.9459 16.0767 20.9459 17.2704C20.9459 18.3515 20.5631 19.2524 19.7973 19.9731C19.009 20.7164 17.973 21.088 16.6892 21.088H16.6554C15.4167 21.088 14.4144 20.7164 13.6486 19.9731C12.8829 19.2299 12.5 18.2952 12.5 17.1691ZM12.9392 46.7299V24.1623H20.4392V46.7299H12.9392ZM24.5946 46.7299H32.0946V34.1285C32.0946 33.3402 32.1847 32.7321 32.3649 32.3042C32.6802 31.5384 33.1588 30.8909 33.8007 30.3616C34.4426 29.8323 35.2477 29.5677 36.2162 29.5677C38.7388 29.5677 40 31.2682 40 34.6691V46.7299H47.5V33.7907C47.5 30.4573 46.7117 27.9292 45.1351 26.2062C43.5585 24.4833 41.4752 23.6218 38.8851 23.6218C35.9797 23.6218 33.7162 24.8718 32.0946 27.3718V27.4393H32.0608L32.0946 27.3718V24.1623H24.5946C24.6396 24.883 24.6622 27.124 24.6622 30.8853C24.6622 34.6465 24.6396 39.9281 24.5946 46.7299Z" fill="white"/>
</g>
<defs>
<clipPath id="clip0_65_1596">
<rect x="12.5" y="12.5" width="35" height="35" fill="white"/>
</clipPath>
</defs>
</svg>
