<svg width="20" height="20" viewBox="0 0 20 20" fill="none" xmlns="http://www.w3.org/2000/svg">
<path d="M5.05165 17.141C4.06853 17.141 3.1045 17.141 2.14047 17.141C0.909185 17.1314 -0.0548436 16.1397 0.00242539 14.9095C0.0406047 14.0608 0.470122 13.441 1.24325 13.0691C1.39597 13.0023 1.42461 12.9165 1.42461 12.7735C1.42461 11.3717 1.41506 9.96035 1.42461 8.55856C1.4437 5.2591 3.6581 2.44598 6.85562 1.64495C7.1706 1.56867 7.49512 1.52098 7.84828 1.45423C7.84828 1.24444 7.84828 1.01558 7.84828 0.786712C7.84828 0.328984 8.14417 0.0142952 8.56415 0.00475918C8.97457 0.00475918 9.28001 0.328984 9.28001 0.777176C9.28001 1.00604 9.28001 1.2349 9.28001 1.4733C10.2154 1.5782 11.084 1.84521 11.9144 2.28387C12.573 1.13954 13.5179 0.3862 14.816 0.100119C15.7705 -0.109673 16.6963 0.0142952 17.5745 0.43388C19.2735 1.25398 20.2566 3.15164 19.9416 4.99209C19.6266 6.82301 18.0803 8.51088 15.7228 8.58717C15.7228 8.65392 15.7132 8.71114 15.7132 8.77789C15.7132 10.1129 15.7132 11.4575 15.7132 12.7926C15.7132 12.9261 15.7514 12.9928 15.8755 13.0596C16.8204 13.4982 17.3072 14.4709 17.0877 15.4626C16.8682 16.4448 15.9996 17.1314 14.9687 17.141C14.0142 17.141 13.0502 17.141 12.0766 17.141C11.838 18.1327 11.3035 18.9242 10.4349 19.4678C9.79543 19.8683 9.09866 20.0399 8.35416 19.9922C7.00834 19.916 5.51934 19.0291 5.05165 17.141ZM2.84679 12.8402H14.2815C14.2815 11.4098 14.2815 9.9985 14.2815 8.58717C14.2815 8.38691 14.2147 8.29155 14.0333 8.21526C12.3057 7.50006 11.2462 5.69776 11.4562 3.8287C11.4753 3.6952 11.4276 3.62844 11.3131 3.57123C10.1295 2.93231 8.87913 2.73206 7.56194 2.95139C5.128 3.3519 3.11404 5.47843 2.89451 7.91965C2.8277 8.65392 2.85633 9.38819 2.84679 10.1225C2.84679 11.0189 2.84679 11.9248 2.84679 12.8307V12.8402ZM12.8498 4.27689C12.8498 5.85033 14.1192 7.1377 15.6846 7.14723C17.2595 7.14723 18.548 5.88848 18.5576 4.31504C18.5576 2.73206 17.2881 1.43516 15.7037 1.43516C14.1288 1.43516 12.8402 2.70345 12.8402 4.27689H12.8498ZM8.57369 14.2897C7.19923 14.2897 5.82478 14.2897 4.44078 14.2897C3.66764 14.2897 2.89451 14.2897 2.12138 14.2897C1.74913 14.2897 1.45324 14.5853 1.41506 14.9382C1.38643 15.291 1.62505 15.6152 1.97821 15.6915C2.07366 15.7106 2.18819 15.7106 2.29319 15.7106C6.47383 15.7106 10.6545 15.7106 14.8351 15.7106C14.9019 15.7106 14.9687 15.7106 15.0355 15.7106C15.341 15.682 15.551 15.5198 15.656 15.2433C15.8373 14.7665 15.4842 14.2897 14.9306 14.2897C12.8116 14.2897 10.6926 14.2897 8.56415 14.2897H8.57369ZM6.57882 17.1505C6.78881 17.9611 7.70511 18.5904 8.63096 18.5714C9.49954 18.5523 10.3968 17.8848 10.5399 17.1505H6.57882Z" fill="white" fill-opacity="0.6"/>
</svg>
