<svg width="25" height="15" viewBox="0 0 25 15" fill="none" xmlns="http://www.w3.org/2000/svg">
<path d="M0.000652299 1.12367C0.142201 0.832274 0.380942 0.743164 0.69535 0.743164C8.56273 0.747067 16.4308 0.746416 24.2981 0.746416C24.8258 0.746416 25 0.920083 25 1.44499C25 2.727 25 4.00837 25 5.29038C25 5.7574 24.8161 5.94277 24.3536 5.94342C23.4508 5.94472 22.5474 5.94342 21.6446 5.94342H21.3504C21.3504 6.05855 21.3504 6.15351 21.3504 6.24848C21.3504 8.67396 21.3504 11.1001 21.3504 13.5256C21.3504 14.1058 21.1978 14.2567 20.6107 14.2567C15.1999 14.2567 9.7897 14.2567 4.37888 14.2567C3.80616 14.2567 3.65092 14.1032 3.65026 13.5386C3.65026 11.1131 3.65026 8.68697 3.65026 6.26149V5.94342C3.54198 5.94342 3.45588 5.94342 3.36912 5.94342C2.47417 5.94342 1.57922 5.93497 0.684261 5.94797C0.36333 5.95253 0.131112 5.85366 0 5.55381V1.12367H0.000652299ZM21.3673 3.85877V4.89361H23.9478V1.81249H1.05607V4.89231H3.63526V3.86202C3.49371 3.86202 3.36586 3.86267 3.23801 3.86202C2.84467 3.85877 2.60332 3.66168 2.60463 3.34557C2.60528 3.0275 2.84728 2.83042 3.23932 2.82782C3.26345 2.82782 3.28824 2.82782 3.31237 2.82782C9.44007 2.82782 15.5671 2.82782 21.6948 2.82782C21.7679 2.82782 21.8416 2.82392 21.9146 2.83172C22.1938 2.86034 22.3993 3.08539 22.3947 3.35402C22.3902 3.62461 22.184 3.84055 21.8996 3.85746C21.7307 3.86787 21.5604 3.85942 21.3667 3.85942L21.3673 3.85877ZM4.70568 3.87373V9.04797H20.3002V3.87763H19.2754C19.2754 3.9804 19.2754 4.06756 19.2754 4.15471C19.2754 4.71474 19.278 5.27477 19.2748 5.83415C19.2722 6.24848 19.1045 6.42865 18.6975 6.46898C18.1209 6.52621 17.7751 6.87355 17.7151 7.45764C17.6747 7.84986 17.4927 8.02352 17.0941 8.02352C14.0342 8.02548 10.9749 8.02548 7.91499 8.02352C7.50404 8.02352 7.32531 7.85051 7.28552 7.44073C7.23073 6.8807 6.87262 6.52426 6.31164 6.46963C5.89874 6.4293 5.73044 6.25238 5.72784 5.84195C5.72392 5.27412 5.72783 4.70629 5.72588 4.1378C5.72588 4.05195 5.7174 3.96674 5.71218 3.87307H4.70634L4.70568 3.87373ZM15.072 3.87242C14.5267 5.28193 13.7178 5.93692 12.5235 5.94407C11.3063 5.95123 10.5079 5.31575 9.92994 3.88088H6.77673C6.77673 4.39343 6.77151 4.88711 6.78391 5.38079C6.78521 5.43738 6.87914 5.51738 6.94633 5.54275C7.56079 5.77626 7.98675 6.19449 8.20787 6.81111C8.25419 6.94054 8.31616 6.98087 8.45183 6.98087C11.1524 6.97697 13.8535 6.97697 16.554 6.98087C16.6936 6.98087 16.751 6.93404 16.7947 6.8072C16.9722 6.29401 17.2937 5.86472 17.798 5.67609C18.1978 5.52649 18.2591 5.29884 18.2317 4.93849C18.2057 4.58726 18.2259 4.23277 18.2259 3.87177H15.0727L15.072 3.87242ZM20.2924 11.1339V10.1095H4.70829V11.1339H20.2924ZM20.3034 12.1909H4.70307V13.1939H20.3034V12.1909ZM11.0506 3.87373C11.2952 4.55994 11.9449 4.94825 12.6872 4.87735C13.2697 4.82141 13.8555 4.34659 13.9214 3.87373H11.0499H11.0506Z" fill="white"/>
</svg>
