<svg width="60" height="60" viewBox="0 0 60 60" fill="none" xmlns="http://www.w3.org/2000/svg">
<rect width="60" height="60" rx="30" fill="#FF0000"/>
<path d="M47.4706 21.4118C47.0588 19.8824 45.8529 18.6765 44.3235 18.2647C41.5294 17.5 30.3529 17.5 30.3529 17.5C30.3529 17.5 19.1765 17.5 16.3824 18.2353C14.8824 18.6471 13.6471 19.8824 13.2353 21.4118C12.5 24.2059 12.5 30 12.5 30C12.5 30 12.5 35.8235 13.2353 38.5882C13.6471 40.1176 14.8529 41.3235 16.3824 41.7353C19.2059 42.5 30.3529 42.5 30.3529 42.5C30.3529 42.5 41.5294 42.5 44.3235 41.7647C45.8529 41.3529 47.0588 40.1471 47.4706 38.6176C48.2059 35.8235 48.2059 30.0294 48.2059 30.0294C48.2059 30.0294 48.2353 24.2059 47.4706 21.4118Z" fill="white"/>
<path d="M26.793 35.3529L36.0871 29.9999L26.793 24.647V35.3529Z" fill="#FF0000"/>
</svg>
